<svg xmlns="http://www.w3.org/2000/svg" viewBox="0 0 100 100">
  <defs>
    <linearGradient id="bg" x1="0%" y1="0%" x2="100%" y2="100%">
      <stop offset="0%" style="stop-color:#4f46e5"/>
      <stop offset="100%" style="stop-color:#312e81"/>
    </linearGradient>
    <linearGradient id="accent" x1="0%" y1="0%" x2="100%" y2="100%">
      <stop offset="0%" style="stop-color:#fbbf24"/>
      <stop offset="100%" style="stop-color:#f59e0b"/>
    </linearGradient>
  </defs>
  <rect width="100" height="100" rx="20" fill="url(#bg)"/>
  <g fill="none" stroke="url(#accent)" stroke-width="4" stroke-linecap="round" stroke-linejoin="round">
    <path d="M30 25 L30 75 C30 75 45 70 50 70 C55 70 70 75 70 75 L70 25 C70 25 55 30 50 30 C45 30 30 25 30 25Z"/>
    <line x1="50" y1="30" x2="50" y2="70"/>
    <line x1="38" y1="40" x2="45" y2="40"/>
    <line x1="38" y1="50" x2="45" y2="50"/>
    <line x1="55" y1="45" x2="62" y2="45"/>
    <line x1="55" y1="55" x2="62" y2="55"/>
  </g>
</svg>
